<?xml version="1.0" encoding="utf-8"?>
<!-- Generator: Adobe Illustrator 19.0.0, SVG Export Plug-In . SVG Version: 6.00 Build 0)  -->
<svg version="1.1" id="Oikos" xmlns="http://www.w3.org/2000/svg" xmlns:xlink="http://www.w3.org/1999/xlink" x="0px" y="0px"
	 viewBox="-205 347 200 100" style="enable-background:new -205 347 200 100;" xml:space="preserve">
<path id="S" d="M-13,405.7c0,7.7-5.9,13.8-17.2,13.8c-11,0-16.7-6.4-17.5-7.2l4.1-7.2c3.8,4.3,9.4,6.1,13.5,6.1
	c5.7,0,8.9-2.1,8.9-5.1s-3.1-4.5-8.7-5.4c-12.2-1.9-16.3-6.4-16.3-12.9c0-7.2,5.8-13.4,16.5-13.4c1.9,0,8.4,0.1,14.7,5.2l-3.4,7
	c-1-0.8-5.2-4.1-11.4-4.1c-4.3,0-8.2,1.2-8.2,4.7c0,2.9,2.5,4,8.7,5C-20,393.9-13,396.5-13,405.7z"/>
<path id="O" d="M-50.9,397c0,12.4-10.1,22.5-22.5,22.5s-22.4-10.1-22.4-22.5s10.1-22.5,22.5-22.5S-50.9,384.6-50.9,397z M-59,397
	c0-7.9-6.4-14.3-14.3-14.3s-14.3,6.4-14.3,14.3s6.4,14.3,14.3,14.3S-59,404.9-59,397z"/>
<path id="K" d="M-94.8,418.5h-10.3l-16.3-18.8v18.8h-8.2v-43h8.2v17.8l15.2-17.8h10.3l-18.3,20.5L-94.8,418.5z"/>
<path id="I" d="M-145.9,418.5v-43h8.2v42.9h-8.2V418.5z"/>
<path id="O_1_" d="M-161.3,382.7v28.5h-28.5v-28.5H-161.3 M-154.1,375.6H-197v42.9h42.9V375.6L-154.1,375.6z"/>
</svg>
